<mxfile host="app.diagrams.net" agent="Mozilla/5.0 (Windows NT 10.0; Win64; x64; rv:128.0) Gecko/20100101 Firefox/128.0" version="25.0.3">
  <diagram name="Page-1" id="XsRoqxGvgSxjasiVzH9C">
    <mxGraphModel dx="1731" dy="1678" grid="1" gridSize="10" guides="1" tooltips="1" connect="1" arrows="1" fold="1" page="1" pageScale="1" pageWidth="850" pageHeight="1100" math="0" shadow="0">
      <root>
        <mxCell id="0" />
        <mxCell id="1" parent="0" />
        <mxCell id="2wPm25KMWRLESi4i-3tM-16" value="" style="edgeStyle=orthogonalEdgeStyle;rounded=0;orthogonalLoop=1;jettySize=auto;html=1;" parent="1" source="2wPm25KMWRLESi4i-3tM-1" target="2wPm25KMWRLESi4i-3tM-15" edge="1">
          <mxGeometry relative="1" as="geometry" />
        </mxCell>
        <mxCell id="2wPm25KMWRLESi4i-3tM-1" value="Program Start" style="ellipse;whiteSpace=wrap;html=1;" parent="1" vertex="1">
          <mxGeometry x="465" y="-10" width="120" height="80" as="geometry" />
        </mxCell>
        <mxCell id="2wPm25KMWRLESi4i-3tM-5" value="" style="edgeStyle=orthogonalEdgeStyle;rounded=0;orthogonalLoop=1;jettySize=auto;html=1;" parent="1" source="2wPm25KMWRLESi4i-3tM-2" target="2wPm25KMWRLESi4i-3tM-4" edge="1">
          <mxGeometry relative="1" as="geometry" />
        </mxCell>
        <mxCell id="2wPm25KMWRLESi4i-3tM-2" value="Find closest item: Mobile goal or red ring" style="rounded=0;whiteSpace=wrap;html=1;" parent="1" vertex="1">
          <mxGeometry x="290" y="270" width="120" height="60" as="geometry" />
        </mxCell>
        <mxCell id="2wPm25KMWRLESi4i-3tM-7" value="" style="edgeStyle=orthogonalEdgeStyle;rounded=0;orthogonalLoop=1;jettySize=auto;html=1;" parent="1" source="2wPm25KMWRLESi4i-3tM-4" target="2wPm25KMWRLESi4i-3tM-6" edge="1">
          <mxGeometry relative="1" as="geometry" />
        </mxCell>
        <mxCell id="2wPm25KMWRLESi4i-3tM-9" value="" style="edgeStyle=orthogonalEdgeStyle;rounded=0;orthogonalLoop=1;jettySize=auto;html=1;" parent="1" source="2wPm25KMWRLESi4i-3tM-4" target="2wPm25KMWRLESi4i-3tM-8" edge="1">
          <mxGeometry relative="1" as="geometry" />
        </mxCell>
        <mxCell id="2wPm25KMWRLESi4i-3tM-4" value="What item is&lt;div&gt;&amp;nbsp;closest?&lt;/div&gt;" style="rhombus;whiteSpace=wrap;html=1;" parent="1" vertex="1">
          <mxGeometry x="140" y="260" width="120" height="80" as="geometry" />
        </mxCell>
        <mxCell id="2wPm25KMWRLESi4i-3tM-11" value="" style="edgeStyle=orthogonalEdgeStyle;rounded=0;orthogonalLoop=1;jettySize=auto;html=1;" parent="1" source="2wPm25KMWRLESi4i-3tM-6" target="2wPm25KMWRLESi4i-3tM-10" edge="1">
          <mxGeometry relative="1" as="geometry" />
        </mxCell>
        <mxCell id="2wPm25KMWRLESi4i-3tM-6" value="Collect the ring onto the intake, without pushing it over&lt;div&gt;has ring = true&lt;/div&gt;" style="rounded=0;whiteSpace=wrap;html=1;" parent="1" vertex="1">
          <mxGeometry x="-30" y="270" width="120" height="60" as="geometry" />
        </mxCell>
        <mxCell id="2wPm25KMWRLESi4i-3tM-8" value="Turn and reverse to the goal, then collect it&lt;div&gt;has goal = true&lt;/div&gt;" style="rounded=0;whiteSpace=wrap;html=1;" parent="1" vertex="1">
          <mxGeometry x="140" y="390" width="120" height="60" as="geometry" />
        </mxCell>
        <mxCell id="2wPm25KMWRLESi4i-3tM-13" value="" style="edgeStyle=orthogonalEdgeStyle;rounded=0;orthogonalLoop=1;jettySize=auto;html=1;" parent="1" source="2wPm25KMWRLESi4i-3tM-10" target="2wPm25KMWRLESi4i-3tM-12" edge="1">
          <mxGeometry relative="1" as="geometry" />
        </mxCell>
        <mxCell id="2wPm25KMWRLESi4i-3tM-10" value="Find and collect the nearest mobile goal&lt;div&gt;has goal = true&lt;/div&gt;" style="rounded=0;whiteSpace=wrap;html=1;" parent="1" vertex="1">
          <mxGeometry x="-30" y="360" width="120" height="60" as="geometry" />
        </mxCell>
        <mxCell id="2wPm25KMWRLESi4i-3tM-12" value="Load the ring onto the mobile goal&lt;div&gt;rings on goal += 1&lt;/div&gt;&lt;div&gt;has ring = false&lt;/div&gt;" style="rounded=0;whiteSpace=wrap;html=1;" parent="1" vertex="1">
          <mxGeometry x="-30" y="450" width="120" height="60" as="geometry" />
        </mxCell>
        <mxCell id="2wPm25KMWRLESi4i-3tM-21" value="" style="edgeStyle=orthogonalEdgeStyle;rounded=0;orthogonalLoop=1;jettySize=auto;html=1;" parent="1" source="2wPm25KMWRLESi4i-3tM-15" target="2wPm25KMWRLESi4i-3tM-20" edge="1">
          <mxGeometry relative="1" as="geometry" />
        </mxCell>
        <mxCell id="2wPm25KMWRLESi4i-3tM-15" value="Has ring = false&lt;div&gt;has goal = false&lt;/div&gt;&lt;div&gt;rings on goal = 0&lt;/div&gt;" style="rounded=0;whiteSpace=wrap;html=1;" parent="1" vertex="1">
          <mxGeometry x="465" y="100" width="120" height="60" as="geometry" />
        </mxCell>
        <mxCell id="2wPm25KMWRLESi4i-3tM-22" style="edgeStyle=orthogonalEdgeStyle;rounded=0;orthogonalLoop=1;jettySize=auto;html=1;exitX=0;exitY=0.5;exitDx=0;exitDy=0;entryX=0.5;entryY=0;entryDx=0;entryDy=0;" parent="1" source="2wPm25KMWRLESi4i-3tM-20" target="2wPm25KMWRLESi4i-3tM-2" edge="1">
          <mxGeometry relative="1" as="geometry" />
        </mxCell>
        <mxCell id="2wPm25KMWRLESi4i-3tM-30" style="edgeStyle=orthogonalEdgeStyle;rounded=0;orthogonalLoop=1;jettySize=auto;html=1;exitX=1;exitY=0.5;exitDx=0;exitDy=0;entryX=0.5;entryY=0;entryDx=0;entryDy=0;" parent="1" source="2wPm25KMWRLESi4i-3tM-20" target="2wPm25KMWRLESi4i-3tM-29" edge="1">
          <mxGeometry relative="1" as="geometry" />
        </mxCell>
        <mxCell id="2wPm25KMWRLESi4i-3tM-44" value="" style="edgeStyle=orthogonalEdgeStyle;rounded=0;orthogonalLoop=1;jettySize=auto;html=1;" parent="1" source="2wPm25KMWRLESi4i-3tM-20" target="2wPm25KMWRLESi4i-3tM-43" edge="1">
          <mxGeometry relative="1" as="geometry" />
        </mxCell>
        <mxCell id="2wPm25KMWRLESi4i-3tM-20" value="has goal or&lt;div&gt;has ring?&lt;/div&gt;" style="rhombus;whiteSpace=wrap;html=1;" parent="1" vertex="1">
          <mxGeometry x="460" y="200" width="130" height="80" as="geometry" />
        </mxCell>
        <mxCell id="2wPm25KMWRLESi4i-3tM-23" value="Does not have&amp;nbsp;&lt;div&gt;goal or ring&lt;/div&gt;" style="text;html=1;align=center;verticalAlign=middle;resizable=0;points=[];autosize=1;strokeColor=none;fillColor=none;" parent="1" vertex="1">
          <mxGeometry x="375" y="190" width="100" height="40" as="geometry" />
        </mxCell>
        <mxCell id="2wPm25KMWRLESi4i-3tM-32" style="edgeStyle=orthogonalEdgeStyle;rounded=0;orthogonalLoop=1;jettySize=auto;html=1;exitX=1;exitY=0.5;exitDx=0;exitDy=0;entryX=0.5;entryY=0;entryDx=0;entryDy=0;" parent="1" source="2wPm25KMWRLESi4i-3tM-29" target="2wPm25KMWRLESi4i-3tM-31" edge="1">
          <mxGeometry relative="1" as="geometry" />
        </mxCell>
        <mxCell id="2wPm25KMWRLESi4i-3tM-37" value="" style="edgeStyle=orthogonalEdgeStyle;rounded=0;orthogonalLoop=1;jettySize=auto;html=1;" parent="1" source="2wPm25KMWRLESi4i-3tM-29" target="2wPm25KMWRLESi4i-3tM-36" edge="1">
          <mxGeometry relative="1" as="geometry" />
        </mxCell>
        <mxCell id="2wPm25KMWRLESi4i-3tM-29" value="rings on goal &amp;gt;= 5?" style="rhombus;whiteSpace=wrap;html=1;" parent="1" vertex="1">
          <mxGeometry x="710" y="270" width="120" height="80" as="geometry" />
        </mxCell>
        <mxCell id="2wPm25KMWRLESi4i-3tM-31" value="Navigate to corner&lt;div&gt;Reverse into corner&lt;/div&gt;&lt;div&gt;Unclamp goal&lt;/div&gt;&lt;div&gt;has goal = false&lt;/div&gt;&lt;div&gt;Remove goal from list&lt;/div&gt;" style="rounded=0;whiteSpace=wrap;html=1;" parent="1" vertex="1">
          <mxGeometry x="880" y="370" width="120" height="80" as="geometry" />
        </mxCell>
        <mxCell id="2wPm25KMWRLESi4i-3tM-34" value="Only has goal" style="text;html=1;align=center;verticalAlign=middle;resizable=0;points=[];autosize=1;strokeColor=none;fillColor=none;" parent="1" vertex="1">
          <mxGeometry x="565" y="210" width="100" height="30" as="geometry" />
        </mxCell>
        <mxCell id="2wPm25KMWRLESi4i-3tM-35" value="yes" style="text;html=1;align=center;verticalAlign=middle;resizable=0;points=[];autosize=1;strokeColor=none;fillColor=none;" parent="1" vertex="1">
          <mxGeometry x="820" y="280" width="40" height="30" as="geometry" />
        </mxCell>
        <mxCell id="2wPm25KMWRLESi4i-3tM-36" value="Locate nearest ring&lt;div&gt;navigate to and intake ring&lt;/div&gt;&lt;div&gt;Score ring on goal&lt;/div&gt;&lt;div&gt;rings on goal += 1&lt;/div&gt;&lt;div&gt;remove ring from list&lt;/div&gt;" style="rounded=0;whiteSpace=wrap;html=1;" parent="1" vertex="1">
          <mxGeometry x="705" y="380" width="130" height="100" as="geometry" />
        </mxCell>
        <mxCell id="2wPm25KMWRLESi4i-3tM-39" value="" style="endArrow=classic;html=1;rounded=0;exitX=0;exitY=0.5;exitDx=0;exitDy=0;" parent="1" source="2wPm25KMWRLESi4i-3tM-36" edge="1">
          <mxGeometry width="50" height="50" relative="1" as="geometry">
            <mxPoint x="660" y="420" as="sourcePoint" />
            <mxPoint x="770" y="250" as="targetPoint" />
            <Array as="points">
              <mxPoint x="670" y="430" />
              <mxPoint x="670" y="250" />
            </Array>
          </mxGeometry>
        </mxCell>
        <mxCell id="2wPm25KMWRLESi4i-3tM-40" value="No" style="text;html=1;align=center;verticalAlign=middle;resizable=0;points=[];autosize=1;strokeColor=none;fillColor=none;" parent="1" vertex="1">
          <mxGeometry x="740" y="340" width="40" height="30" as="geometry" />
        </mxCell>
        <mxCell id="2wPm25KMWRLESi4i-3tM-62" value="" style="edgeStyle=orthogonalEdgeStyle;rounded=0;orthogonalLoop=1;jettySize=auto;html=1;" parent="1" source="2wPm25KMWRLESi4i-3tM-43" target="2wPm25KMWRLESi4i-3tM-59" edge="1">
          <mxGeometry relative="1" as="geometry" />
        </mxCell>
        <mxCell id="2wPm25KMWRLESi4i-3tM-43" value="Find closest mobile goal&lt;div&gt;Clamp goal&lt;/div&gt;" style="rounded=0;whiteSpace=wrap;html=1;" parent="1" vertex="1">
          <mxGeometry x="465" y="360" width="120" height="55" as="geometry" />
        </mxCell>
        <mxCell id="2wPm25KMWRLESi4i-3tM-45" value="Only has ring" style="text;html=1;align=center;verticalAlign=middle;resizable=0;points=[];autosize=1;strokeColor=none;fillColor=none;" parent="1" vertex="1">
          <mxGeometry x="530" y="270" width="90" height="30" as="geometry" />
        </mxCell>
        <mxCell id="2wPm25KMWRLESi4i-3tM-63" style="edgeStyle=orthogonalEdgeStyle;rounded=0;orthogonalLoop=1;jettySize=auto;html=1;exitX=0.5;exitY=1;exitDx=0;exitDy=0;entryX=0.5;entryY=0;entryDx=0;entryDy=0;" parent="1" source="2wPm25KMWRLESi4i-3tM-59" target="2wPm25KMWRLESi4i-3tM-60" edge="1">
          <mxGeometry relative="1" as="geometry" />
        </mxCell>
        <mxCell id="2wPm25KMWRLESi4i-3tM-59" value="Remove goal from list&lt;div&gt;has goal = true&lt;/div&gt;" style="rounded=0;whiteSpace=wrap;html=1;" parent="1" vertex="1">
          <mxGeometry x="305" y="357.5" width="120" height="60" as="geometry" />
        </mxCell>
        <mxCell id="2wPm25KMWRLESi4i-3tM-66" value="" style="edgeStyle=orthogonalEdgeStyle;rounded=0;orthogonalLoop=1;jettySize=auto;html=1;" parent="1" source="2wPm25KMWRLESi4i-3tM-60" target="2wPm25KMWRLESi4i-3tM-61" edge="1">
          <mxGeometry relative="1" as="geometry" />
        </mxCell>
        <mxCell id="2wPm25KMWRLESi4i-3tM-60" value="Spin intake to score ring" style="rounded=0;whiteSpace=wrap;html=1;" parent="1" vertex="1">
          <mxGeometry x="305" y="460" width="120" height="60" as="geometry" />
        </mxCell>
        <mxCell id="2wPm25KMWRLESi4i-3tM-61" value="Rings on goal += 1&lt;div&gt;has ring = false&lt;/div&gt;" style="rounded=0;whiteSpace=wrap;html=1;" parent="1" vertex="1">
          <mxGeometry x="465" y="460" width="120" height="60" as="geometry" />
        </mxCell>
        <mxCell id="2wPm25KMWRLESi4i-3tM-67" value="" style="endArrow=none;html=1;rounded=0;" parent="1" edge="1">
          <mxGeometry width="50" height="50" relative="1" as="geometry">
            <mxPoint x="1060" y="600" as="sourcePoint" />
            <mxPoint x="120" y="600" as="targetPoint" />
            <Array as="points" />
          </mxGeometry>
        </mxCell>
        <mxCell id="2wPm25KMWRLESi4i-3tM-68" value="" style="endArrow=none;html=1;rounded=0;entryX=0.5;entryY=1;entryDx=0;entryDy=0;exitX=0.5;exitY=1;exitDx=0;exitDy=0;" parent="1" source="2wPm25KMWRLESi4i-3tM-12" target="2wPm25KMWRLESi4i-3tM-8" edge="1">
          <mxGeometry width="50" height="50" relative="1" as="geometry">
            <mxPoint x="200" y="600" as="sourcePoint" />
            <mxPoint x="200" y="440" as="targetPoint" />
            <Array as="points">
              <mxPoint x="30" y="540" />
              <mxPoint x="200" y="540" />
            </Array>
          </mxGeometry>
        </mxCell>
        <mxCell id="2wPm25KMWRLESi4i-3tM-69" value="Ring" style="text;html=1;align=center;verticalAlign=middle;resizable=0;points=[];autosize=1;strokeColor=none;fillColor=none;" parent="1" vertex="1">
          <mxGeometry x="105" y="270" width="50" height="30" as="geometry" />
        </mxCell>
        <mxCell id="2wPm25KMWRLESi4i-3tM-70" value="Goal" style="text;html=1;align=center;verticalAlign=middle;resizable=0;points=[];autosize=1;strokeColor=none;fillColor=none;" parent="1" vertex="1">
          <mxGeometry x="155" y="330" width="50" height="30" as="geometry" />
        </mxCell>
        <mxCell id="2wPm25KMWRLESi4i-3tM-71" value="" style="endArrow=none;html=1;rounded=0;entryX=0.5;entryY=1;entryDx=0;entryDy=0;" parent="1" target="2wPm25KMWRLESi4i-3tM-61" edge="1">
          <mxGeometry width="50" height="50" relative="1" as="geometry">
            <mxPoint x="525" y="600" as="sourcePoint" />
            <mxPoint x="530" y="530" as="targetPoint" />
          </mxGeometry>
        </mxCell>
        <mxCell id="2wPm25KMWRLESi4i-3tM-72" value="" style="endArrow=classic;html=1;rounded=0;" parent="1" edge="1">
          <mxGeometry width="50" height="50" relative="1" as="geometry">
            <mxPoint x="1060" y="600" as="sourcePoint" />
            <mxPoint x="530" y="180" as="targetPoint" />
            <Array as="points">
              <mxPoint x="1060" y="180" />
            </Array>
          </mxGeometry>
        </mxCell>
        <mxCell id="2wPm25KMWRLESi4i-3tM-74" value="" style="endArrow=none;html=1;rounded=0;exitX=0.5;exitY=1;exitDx=0;exitDy=0;" parent="1" source="2wPm25KMWRLESi4i-3tM-31" edge="1">
          <mxGeometry width="50" height="50" relative="1" as="geometry">
            <mxPoint x="720" y="530" as="sourcePoint" />
            <mxPoint x="770" y="480" as="targetPoint" />
            <Array as="points">
              <mxPoint x="940" y="530" />
              <mxPoint x="770" y="530" />
            </Array>
          </mxGeometry>
        </mxCell>
        <mxCell id="2wPm25KMWRLESi4i-3tM-75" value="" style="endArrow=none;html=1;rounded=0;" parent="1" edge="1">
          <mxGeometry width="50" height="50" relative="1" as="geometry">
            <mxPoint x="850" y="600" as="sourcePoint" />
            <mxPoint x="850" y="530" as="targetPoint" />
          </mxGeometry>
        </mxCell>
        <mxCell id="2wPm25KMWRLESi4i-3tM-76" value="" style="endArrow=none;html=1;rounded=0;" parent="1" edge="1">
          <mxGeometry width="50" height="50" relative="1" as="geometry">
            <mxPoint x="120" y="600" as="sourcePoint" />
            <mxPoint x="120" y="540" as="targetPoint" />
          </mxGeometry>
        </mxCell>
        <mxCell id="2wPm25KMWRLESi4i-3tM-77" value="&lt;h1 style=&quot;margin-top: 0px; line-height: 60%;&quot;&gt;&lt;br&gt;&lt;/h1&gt;&lt;h1 style=&quot;margin-top: 0px; line-height: 60%;&quot;&gt;Search and Stack GPS&lt;/h1&gt;&lt;h1 style=&quot;margin-top: 0px; line-height: 60%;&quot;&gt;&lt;font style=&quot;font-size: 20px; line-height: 60%;&quot;&gt;OSCAR Full Autonomous&lt;/font&gt;&lt;/h1&gt;" style="text;html=1;whiteSpace=wrap;overflow=hidden;rounded=0;spacing=2;align=center;" parent="1" vertex="1">
          <mxGeometry x="770" y="-30" width="300" height="90" as="geometry" />
        </mxCell>
        <UserObject label="&lt;span style=&quot;color: rgb(0, 0, 0); font-family: Helvetica; font-style: normal; font-variant-ligatures: normal; font-variant-caps: normal; font-weight: 400; letter-spacing: normal; text-indent: 0px; text-transform: none; word-spacing: 0px; -webkit-text-stroke-width: 0px; white-space: normal; background-color: rgb(251, 251, 251); text-decoration-thickness: initial; text-decoration-style: initial; text-decoration-color: initial; float: none; display: inline !important;&quot;&gt;Advanced instructions, such as how the robot moves, can be found in pseudocode at&amp;nbsp;https://github.com/WhoIsConch/OSCAR_Control&lt;/span&gt;" link="&lt;span style=&quot;color: rgb(0, 0, 0); font-family: Helvetica; font-size: 12px; font-style: normal; font-variant-ligatures: normal; font-variant-caps: normal; font-weight: 400; letter-spacing: normal; orphans: 2; text-align: left; text-indent: 0px; text-transform: none; widows: 2; word-spacing: 0px; -webkit-text-stroke-width: 0px; white-space: normal; background-color: rgb(251, 251, 251); text-decoration-thickness: initial; text-decoration-style: initial; text-decoration-color: initial; display: inline !important; float: none;&quot;&gt;Advanced instructions, such as how the robot moves, can be found in pseudocode at&amp;nbsp;https://github.com/WhoIsConch/OSCAR_Control&lt;/span&gt;" id="2wPm25KMWRLESi4i-3tM-78">
          <mxCell style="text;whiteSpace=wrap;html=1;fontSize=15;align=center;" parent="1" vertex="1">
            <mxGeometry x="785" y="70" width="290" height="50" as="geometry" />
          </mxCell>
        </UserObject>
      </root>
    </mxGraphModel>
  </diagram>
</mxfile>
